<svg xmlns="http://www.w3.org/2000/svg" viewBox="-1.1 -1.1 2.2 2.2" preserveAspectRatio="xMidYMid meet" width="790" height="790"><rect x="-1" y="-1" width="2" height="2" fill="white" /><circle cx="0" cy="0" r="1" stroke="black" stroke-width="0.01" fill="none" class="s-3tetCp-73iO3"/><path  class="s-3tetCp-73iO3" d="M 0.8660254037844387 0.49999999999999994 A 0.13165249758739617 0.13165249758739617 0 0 1 0.9659258262890683 0.2588190451025205 A 0.13165249758739558 0.13165249758739558 0 0 1 1 0 A 0.2679491924311227 0.2679491924311227 0 0 0 0.8660254037844387 0.49999999999999994 Z" fill="transparent"/><path  class="s-3tetCp-73iO3" d="M 0.8660254037844387 0.49999999999999994 A 0.2679491924311227 0.2679491924311227 0 0 1 1 0 A 0.2679491924311228 0.2679491924311228 0 0 1 0.8660254037844386 -0.5 A 0.5773502691896258 0.5773502691896258 0 0 0 0.8660254037844387 0.49999999999999994 Z" fill="transparent"/><path  class="s-3tetCp-73iO3" d="M 0.8660254037844387 0.49999999999999994 A 0.5773502691896258 0.5773502691896258 0 0 1 0.8660254037844386 -0.5 A 0.5773502691896256 0.5773502691896256 0 0 1 6.123233995736766e-17 -1 A 1.732050807568877 1.732050807568877 0 0 0 0.8660254037844387 0.49999999999999994 Z" fill="transparent"/><path  class="s-3tetCp-73iO3" d="M 0.8660254037844387 0.49999999999999994 A 1.732050807568877 1.732050807568877 0 0 1 6.123233995736766e-17 -1 A 1.732050807568878 1.732050807568878 0 0 1 -0.8660254037844385 0.5000000000000003 A 1.7320508075688767 1.7320508075688767 0 0 1 0.8660254037844387 0.49999999999999994 Z" fill="transparent"/><path  class="s-3tetCp-73iO3" d="M -0.8660254037844385 0.5000000000000003 A 0.5773502691896257 0.5773502691896257 0 0 1 6.123233995736766e-17 1 A 0.5773502691896256 0.5773502691896256 0 0 1 0.8660254037844387 0.49999999999999994 A 1.7320508075688767 1.7320508075688767 0 0 0 -0.8660254037844385 0.5000000000000003 Z" fill="transparent"/><path  class="s-3tetCp-73iO3" d="M 6.123233995736766e-17 1 A 0.26794919243112264 0.26794919243112264 0 0 1 0.4999999999999999 0.8660254037844387 A 0.26794919243112275 0.26794919243112275 0 0 1 0.8660254037844387 0.49999999999999994 A 0.5773502691896256 0.5773502691896256 0 0 0 6.123233995736766e-17 1 Z" fill="transparent"/><path  class="s-3tetCp-73iO3" d="M 0.4999999999999999 0.8660254037844387 A 0.13165249758739567 0.13165249758739567 0 0 1 0.7071067811865476 0.7071067811865476 A 0.1316524975873961 0.1316524975873961 0 0 1 0.8660254037844387 0.49999999999999994 A 0.26794919243112275 0.26794919243112275 0 0 0 0.4999999999999999 0.8660254037844387 Z" fill="transparent"/><path  class="s-3tetCp-73iO3" d="M 1 0 A 0.13165249758739572 0.13165249758739572 0 0 1 0.9659258262890683 -0.25881904510252085 A 0.13165249758739614 0.13165249758739614 0 0 1 0.8660254037844386 -0.5 A 0.2679491924311228 0.2679491924311228 0 0 0 1 0 Z" fill="transparent"/><path  class="s-3tetCp-73iO3" d="M 0.8660254037844386 -0.5 A 0.13165249758739545 0.13165249758739545 0 0 1 0.7071067811865476 -0.7071067811865476 A 0.1316524975873962 0.1316524975873962 0 0 1 0.4999999999999999 -0.8660254037844387 A 0.26794919243112275 0.26794919243112275 0 0 0 0.8660254037844386 -0.5 Z" fill="transparent"/><path  class="s-3tetCp-73iO3" d="M 0.8660254037844386 -0.5 A 0.26794919243112275 0.26794919243112275 0 0 1 0.4999999999999999 -0.8660254037844387 A 0.2679491924311226 0.2679491924311226 0 0 1 6.123233995736766e-17 -1 A 0.5773502691896256 0.5773502691896256 0 0 0 0.8660254037844386 -0.5 Z" fill="transparent"/><path  class="s-3tetCp-73iO3" d="M 0.4999999999999999 -0.8660254037844387 A 0.13165249758739572 0.13165249758739572 0 0 1 0.25881904510252074 -0.9659258262890683 A 0.13165249758739586 0.13165249758739586 0 0 1 6.123233995736766e-17 -1 A 0.2679491924311226 0.2679491924311226 0 0 0 0.4999999999999999 -0.8660254037844387 Z" fill="transparent"/><path  class="s-3tetCp-73iO3" d="M 6.123233995736766e-17 -1 A 0.13165249758739575 0.13165249758739575 0 0 1 -0.25881904510252085 -0.9659258262890683 A 0.1316524975873961 0.1316524975873961 0 0 1 -0.4999999999999998 -0.8660254037844387 A 0.26794919243112275 0.26794919243112275 0 0 0 6.123233995736766e-17 -1 Z" fill="transparent"/><path  class="s-3tetCp-73iO3" d="M 6.123233995736766e-17 -1 A 0.26794919243112275 0.26794919243112275 0 0 1 -0.4999999999999998 -0.8660254037844387 A 0.2679491924311225 0.2679491924311225 0 0 1 -0.8660254037844385 -0.5000000000000003 A 0.5773502691896256 0.5773502691896256 0 0 0 6.123233995736766e-17 -1 Z" fill="transparent"/><path  class="s-3tetCp-73iO3" d="M 6.123233995736766e-17 -1 A 0.5773502691896256 0.5773502691896256 0 0 1 -0.8660254037844385 -0.5000000000000003 A 0.5773502691896262 0.5773502691896262 0 0 1 -0.8660254037844385 0.5000000000000003 A 1.732050807568878 1.732050807568878 0 0 0 6.123233995736766e-17 -1 Z" fill="transparent"/><path  class="s-3tetCp-73iO3" d="M -0.4999999999999998 -0.8660254037844387 A 0.13165249758739575 0.13165249758739575 0 0 1 -0.7071067811865475 -0.7071067811865476 A 0.1316524975873955 0.1316524975873955 0 0 1 -0.8660254037844385 -0.5000000000000003 A 0.2679491924311225 0.2679491924311225 0 0 0 -0.4999999999999998 -0.8660254037844387 Z" fill="transparent"/><path  class="s-3tetCp-73iO3" d="M -0.8660254037844385 -0.5000000000000003 A 0.13165249758739608 0.13165249758739608 0 0 1 -0.9659258262890682 -0.258819045102521 A 0.1316524975873959 0.1316524975873959 0 0 1 -1 -1.2246467991473532e-16 A 0.26794919243112286 0.26794919243112286 0 0 0 -0.8660254037844385 -0.5000000000000003 Z" fill="transparent"/><path  class="s-3tetCp-73iO3" d="M -0.8660254037844385 -0.5000000000000003 A 0.26794919243112286 0.26794919243112286 0 0 1 -1 -1.2246467991473532e-16 A 0.2679491924311229 0.2679491924311229 0 0 1 -0.8660254037844385 0.5000000000000003 A 0.5773502691896262 0.5773502691896262 0 0 0 -0.8660254037844385 -0.5000000000000003 Z" fill="transparent"/><path  class="s-3tetCp-73iO3" d="M -1 -1.2246467991473532e-16 A 0.13165249758739558 0.13165249758739558 0 0 1 -0.9659258262890684 0.25881904510252035 A 0.13165249758739622 0.13165249758739622 0 0 1 -0.8660254037844385 0.5000000000000003 A 0.2679491924311229 0.2679491924311229 0 0 0 -1 -1.2246467991473532e-16 Z" fill="transparent"/><path  class="s-3tetCp-73iO3" d="M -0.8660254037844385 0.5000000000000003 A 0.1316524975873959 0.1316524975873959 0 0 1 -0.7071067811865475 0.7071067811865476 A 0.1316524975873961 0.1316524975873961 0 0 1 -0.4999999999999998 0.8660254037844387 A 0.2679491924311228 0.2679491924311228 0 0 0 -0.8660254037844385 0.5000000000000003 Z" fill="transparent"/><path  class="s-3tetCp-73iO3" d="M -0.8660254037844385 0.5000000000000003 A 0.2679491924311228 0.2679491924311228 0 0 1 -0.4999999999999998 0.8660254037844387 A 0.2679491924311225 0.2679491924311225 0 0 1 6.123233995736766e-17 1 A 0.5773502691896257 0.5773502691896257 0 0 0 -0.8660254037844385 0.5000000000000003 Z" fill="transparent"/><path  class="s-3tetCp-73iO3" d="M -0.4999999999999998 0.8660254037844387 A 0.13165249758739528 0.13165249758739528 0 0 1 -0.25881904510252085 0.9659258262890683 A 0.13165249758739608 0.13165249758739608 0 0 1 6.123233995736766e-17 1 A 0.2679491924311225 0.2679491924311225 0 0 0 -0.4999999999999998 0.8660254037844387 Z" fill="transparent"/><path  class="s-3tetCp-73iO3" d="M 6.123233995736766e-17 1 A 0.13165249758739575 0.13165249758739575 0 0 1 0.25881904510252074 0.9659258262890683 A 0.13165249758739592 0.13165249758739592 0 0 1 0.4999999999999999 0.8660254037844387 A 0.26794919243112264 0.26794919243112264 0 0 0 6.123233995736766e-17 1 Z" fill="transparent"/><path stroke="#0000ff" stroke-width="0.005" fill="none" class="s-3tetCp-73iO3" d="M 0.8660254037844387 0.49999999999999994 A 0.13165249758739617 0.13165249758739617 0 0 1 0.9659258262890683 0.2588190451025205"/><path stroke="#0000ff" stroke-width="0.005" fill="none" class="s-3tetCp-73iO3" d="M 0.9659258262890683 0.2588190451025205 A 0.13165249758739558 0.13165249758739558 0 0 1 1 0"/><path stroke="#0000ff" stroke-width="0.005" fill="none" class="s-3tetCp-73iO3" d="M 0.8660254037844387 0.49999999999999994 A 0.2679491924311227 0.2679491924311227 0 0 1 1 0"/><path stroke="#0000ff" stroke-width="0.005" fill="none" class="s-3tetCp-73iO3" d="M 1 0 A 0.2679491924311228 0.2679491924311228 0 0 1 0.8660254037844386 -0.5"/><path stroke="#0000ff" stroke-width="0.005" fill="none" class="s-3tetCp-73iO3" d="M 0.8660254037844387 0.49999999999999994 A 0.5773502691896258 0.5773502691896258 0 0 1 0.8660254037844386 -0.5"/><path stroke="#0000ff" stroke-width="0.005" fill="none" class="s-3tetCp-73iO3" d="M 0.8660254037844386 -0.5 A 0.5773502691896256 0.5773502691896256 0 0 1 6.123233995736766e-17 -1"/><path stroke="#0000ff" stroke-width="0.005" fill="none" class="s-3tetCp-73iO3" d="M 0.8660254037844387 0.49999999999999994 A 1.732050807568877 1.732050807568877 0 0 1 6.123233995736766e-17 -1"/><path stroke="#0000ff" stroke-width="0.005" fill="none" class="s-3tetCp-73iO3" d="M 6.123233995736766e-17 -1 A 1.732050807568878 1.732050807568878 0 0 1 -0.8660254037844385 0.5000000000000003"/><path stroke="#0000ff" stroke-width="0.005" fill="none" class="s-3tetCp-73iO3" d="M 0.8660254037844387 0.49999999999999994 A 1.7320508075688767 1.7320508075688767 0 0 0 -0.8660254037844385 0.5000000000000003"/><path stroke="#0000ff" stroke-width="0.005" fill="none" class="s-3tetCp-73iO3" d="M -0.8660254037844385 0.5000000000000003 A 0.5773502691896257 0.5773502691896257 0 0 1 6.123233995736766e-17 1"/><path stroke="#0000ff" stroke-width="0.005" fill="none" class="s-3tetCp-73iO3" d="M 6.123233995736766e-17 1 A 0.5773502691896256 0.5773502691896256 0 0 1 0.8660254037844387 0.49999999999999994"/><path stroke="#0000ff" stroke-width="0.005" fill="none" class="s-3tetCp-73iO3" d="M -0.8660254037844385 0.5000000000000003 A 1.7320508075688767 1.7320508075688767 0 0 1 0.8660254037844387 0.49999999999999994"/><path stroke="#0000ff" stroke-width="0.005" fill="none" class="s-3tetCp-73iO3" d="M 6.123233995736766e-17 1 A 0.26794919243112264 0.26794919243112264 0 0 1 0.4999999999999999 0.8660254037844387"/><path stroke="#0000ff" stroke-width="0.005" fill="none" class="s-3tetCp-73iO3" d="M 0.4999999999999999 0.8660254037844387 A 0.26794919243112275 0.26794919243112275 0 0 1 0.8660254037844387 0.49999999999999994"/><path stroke="#0000ff" stroke-width="0.005" fill="none" class="s-3tetCp-73iO3" d="M 0.4999999999999999 0.8660254037844387 A 0.13165249758739567 0.13165249758739567 0 0 1 0.7071067811865476 0.7071067811865476"/><path stroke="#0000ff" stroke-width="0.005" fill="none" class="s-3tetCp-73iO3" d="M 0.7071067811865476 0.7071067811865476 A 0.1316524975873961 0.1316524975873961 0 0 1 0.8660254037844387 0.49999999999999994"/><path stroke="#0000ff" stroke-width="0.005" fill="none" class="s-3tetCp-73iO3" d="M 1 0 A 0.13165249758739572 0.13165249758739572 0 0 1 0.9659258262890683 -0.25881904510252085"/><path stroke="#0000ff" stroke-width="0.005" fill="none" class="s-3tetCp-73iO3" d="M 0.9659258262890683 -0.25881904510252085 A 0.13165249758739614 0.13165249758739614 0 0 1 0.8660254037844386 -0.5"/><path stroke="#0000ff" stroke-width="0.005" fill="none" class="s-3tetCp-73iO3" d="M 0.8660254037844386 -0.5 A 0.13165249758739545 0.13165249758739545 0 0 1 0.7071067811865476 -0.7071067811865476"/><path stroke="#0000ff" stroke-width="0.005" fill="none" class="s-3tetCp-73iO3" d="M 0.7071067811865476 -0.7071067811865476 A 0.1316524975873962 0.1316524975873962 0 0 1 0.4999999999999999 -0.8660254037844387"/><path stroke="#0000ff" stroke-width="0.005" fill="none" class="s-3tetCp-73iO3" d="M 0.8660254037844386 -0.5 A 0.26794919243112275 0.26794919243112275 0 0 1 0.4999999999999999 -0.8660254037844387"/><path stroke="#0000ff" stroke-width="0.005" fill="none" class="s-3tetCp-73iO3" d="M 0.4999999999999999 -0.8660254037844387 A 0.2679491924311226 0.2679491924311226 0 0 1 6.123233995736766e-17 -1"/><path stroke="#0000ff" stroke-width="0.005" fill="none" class="s-3tetCp-73iO3" d="M 0.4999999999999999 -0.8660254037844387 A 0.13165249758739572 0.13165249758739572 0 0 1 0.25881904510252074 -0.9659258262890683"/><path stroke="#0000ff" stroke-width="0.005" fill="none" class="s-3tetCp-73iO3" d="M 0.25881904510252074 -0.9659258262890683 A 0.13165249758739586 0.13165249758739586 0 0 1 6.123233995736766e-17 -1"/><path stroke="#0000ff" stroke-width="0.005" fill="none" class="s-3tetCp-73iO3" d="M 6.123233995736766e-17 -1 A 0.13165249758739575 0.13165249758739575 0 0 1 -0.25881904510252085 -0.9659258262890683"/><path stroke="#0000ff" stroke-width="0.005" fill="none" class="s-3tetCp-73iO3" d="M -0.25881904510252085 -0.9659258262890683 A 0.1316524975873961 0.1316524975873961 0 0 1 -0.4999999999999998 -0.8660254037844387"/><path stroke="#0000ff" stroke-width="0.005" fill="none" class="s-3tetCp-73iO3" d="M 6.123233995736766e-17 -1 A 0.26794919243112275 0.26794919243112275 0 0 1 -0.4999999999999998 -0.8660254037844387"/><path stroke="#0000ff" stroke-width="0.005" fill="none" class="s-3tetCp-73iO3" d="M -0.4999999999999998 -0.8660254037844387 A 0.2679491924311225 0.2679491924311225 0 0 1 -0.8660254037844385 -0.5000000000000003"/><path stroke="#0000ff" stroke-width="0.005" fill="none" class="s-3tetCp-73iO3" d="M 6.123233995736766e-17 -1 A 0.5773502691896256 0.5773502691896256 0 0 1 -0.8660254037844385 -0.5000000000000003"/><path stroke="#0000ff" stroke-width="0.005" fill="none" class="s-3tetCp-73iO3" d="M -0.8660254037844385 -0.5000000000000003 A 0.5773502691896262 0.5773502691896262 0 0 1 -0.8660254037844385 0.5000000000000003"/><path stroke="#0000ff" stroke-width="0.005" fill="none" class="s-3tetCp-73iO3" d="M -0.4999999999999998 -0.8660254037844387 A 0.13165249758739575 0.13165249758739575 0 0 1 -0.7071067811865475 -0.7071067811865476"/><path stroke="#0000ff" stroke-width="0.005" fill="none" class="s-3tetCp-73iO3" d="M -0.7071067811865475 -0.7071067811865476 A 0.1316524975873955 0.1316524975873955 0 0 1 -0.8660254037844385 -0.5000000000000003"/><path stroke="#0000ff" stroke-width="0.005" fill="none" class="s-3tetCp-73iO3" d="M -0.8660254037844385 -0.5000000000000003 A 0.13165249758739608 0.13165249758739608 0 0 1 -0.9659258262890682 -0.258819045102521"/><path stroke="#0000ff" stroke-width="0.005" fill="none" class="s-3tetCp-73iO3" d="M -0.9659258262890682 -0.258819045102521 A 0.1316524975873959 0.1316524975873959 0 0 1 -1 -1.2246467991473532e-16"/><path stroke="#0000ff" stroke-width="0.005" fill="none" class="s-3tetCp-73iO3" d="M -0.8660254037844385 -0.5000000000000003 A 0.26794919243112286 0.26794919243112286 0 0 1 -1 -1.2246467991473532e-16"/><path stroke="#0000ff" stroke-width="0.005" fill="none" class="s-3tetCp-73iO3" d="M -1 -1.2246467991473532e-16 A 0.2679491924311229 0.2679491924311229 0 0 1 -0.8660254037844385 0.5000000000000003"/><path stroke="#0000ff" stroke-width="0.005" fill="none" class="s-3tetCp-73iO3" d="M -1 -1.2246467991473532e-16 A 0.13165249758739558 0.13165249758739558 0 0 1 -0.9659258262890684 0.25881904510252035"/><path stroke="#0000ff" stroke-width="0.005" fill="none" class="s-3tetCp-73iO3" d="M -0.9659258262890684 0.25881904510252035 A 0.13165249758739622 0.13165249758739622 0 0 1 -0.8660254037844385 0.5000000000000003"/><path stroke="#0000ff" stroke-width="0.005" fill="none" class="s-3tetCp-73iO3" d="M -0.8660254037844385 0.5000000000000003 A 0.1316524975873959 0.1316524975873959 0 0 1 -0.7071067811865475 0.7071067811865476"/><path stroke="#0000ff" stroke-width="0.005" fill="none" class="s-3tetCp-73iO3" d="M -0.7071067811865475 0.7071067811865476 A 0.1316524975873961 0.1316524975873961 0 0 1 -0.4999999999999998 0.8660254037844387"/><path stroke="#0000ff" stroke-width="0.005" fill="none" class="s-3tetCp-73iO3" d="M -0.8660254037844385 0.5000000000000003 A 0.2679491924311228 0.2679491924311228 0 0 1 -0.4999999999999998 0.8660254037844387"/><path stroke="#0000ff" stroke-width="0.005" fill="none" class="s-3tetCp-73iO3" d="M -0.4999999999999998 0.8660254037844387 A 0.2679491924311225 0.2679491924311225 0 0 1 6.123233995736766e-17 1"/><path stroke="#0000ff" stroke-width="0.005" fill="none" class="s-3tetCp-73iO3" d="M -0.4999999999999998 0.8660254037844387 A 0.13165249758739528 0.13165249758739528 0 0 1 -0.25881904510252085 0.9659258262890683"/><path stroke="#0000ff" stroke-width="0.005" fill="none" class="s-3tetCp-73iO3" d="M -0.25881904510252085 0.9659258262890683 A 0.13165249758739608 0.13165249758739608 0 0 1 6.123233995736766e-17 1"/><path stroke="#0000ff" stroke-width="0.005" fill="none" class="s-3tetCp-73iO3" d="M 6.123233995736766e-17 1 A 0.13165249758739575 0.13165249758739575 0 0 1 0.25881904510252074 0.9659258262890683"/><path stroke="#0000ff" stroke-width="0.005" fill="none" class="s-3tetCp-73iO3" d="M 0.25881904510252074 0.9659258262890683 A 0.13165249758739592 0.13165249758739592 0 0 1 0.4999999999999999 0.8660254037844387"/><g  class="s-3tetCp-73iO3"><circle r="0.015" fill="#44aa00" class="s-3tetCp-73iO3" cx="0.8660254037844387" cy="0.49999999999999994"/></g><g  class="s-3tetCp-73iO3"><circle r="0.015" fill="#44aa00" class="s-3tetCp-73iO3" cx="0.9659258262890683" cy="0.2588190451025205"/></g><g  class="s-3tetCp-73iO3"><circle r="0.015" fill="#44aa00" class="s-3tetCp-73iO3" cx="1" cy="0"/></g><g  class="s-3tetCp-73iO3"><circle r="0.015" fill="#44aa00" class="s-3tetCp-73iO3" cx="0.8660254037844386" cy="-0.5"/></g><g  class="s-3tetCp-73iO3"><circle r="0.015" fill="#44aa00" class="s-3tetCp-73iO3" cx="6.123233995736766e-17" cy="-1"/></g><g  class="s-3tetCp-73iO3"><circle r="0.015" fill="#44aa00" class="s-3tetCp-73iO3" cx="-0.8660254037844385" cy="0.5000000000000003"/></g><g  class="s-3tetCp-73iO3"><circle r="0.015" fill="#44aa00" class="s-3tetCp-73iO3" cx="6.123233995736766e-17" cy="1"/></g><g  class="s-3tetCp-73iO3"><circle r="0.015" fill="#44aa00" class="s-3tetCp-73iO3" cx="0.4999999999999999" cy="0.8660254037844387"/></g><g  class="s-3tetCp-73iO3"><circle r="0.015" fill="#44aa00" class="s-3tetCp-73iO3" cx="0.7071067811865476" cy="0.7071067811865476"/></g><g  class="s-3tetCp-73iO3"><circle r="0.015" fill="#44aa00" class="s-3tetCp-73iO3" cx="0.9659258262890683" cy="-0.25881904510252085"/></g><g  class="s-3tetCp-73iO3"><circle r="0.015" fill="#44aa00" class="s-3tetCp-73iO3" cx="0.7071067811865476" cy="-0.7071067811865476"/></g><g  class="s-3tetCp-73iO3"><circle r="0.015" fill="#44aa00" class="s-3tetCp-73iO3" cx="0.4999999999999999" cy="-0.8660254037844387"/></g><g  class="s-3tetCp-73iO3"><circle r="0.015" fill="#44aa00" class="s-3tetCp-73iO3" cx="0.25881904510252074" cy="-0.9659258262890683"/></g><g  class="s-3tetCp-73iO3"><circle r="0.015" fill="#44aa00" class="s-3tetCp-73iO3" cx="-0.25881904510252085" cy="-0.9659258262890683"/></g><g  class="s-3tetCp-73iO3"><circle r="0.015" fill="#44aa00" class="s-3tetCp-73iO3" cx="-0.4999999999999998" cy="-0.8660254037844387"/></g><g  class="s-3tetCp-73iO3"><circle r="0.015" fill="#44aa00" class="s-3tetCp-73iO3" cx="-0.8660254037844385" cy="-0.5000000000000003"/></g><g  class="s-3tetCp-73iO3"><circle r="0.015" fill="#44aa00" class="s-3tetCp-73iO3" cx="-0.7071067811865475" cy="-0.7071067811865476"/></g><g  class="s-3tetCp-73iO3"><circle r="0.015" fill="#44aa00" class="s-3tetCp-73iO3" cx="-0.9659258262890682" cy="-0.258819045102521"/></g><g  class="s-3tetCp-73iO3"><circle r="0.015" fill="#44aa00" class="s-3tetCp-73iO3" cx="-1" cy="-1.2246467991473532e-16"/></g><g  class="s-3tetCp-73iO3"><circle r="0.015" fill="#44aa00" class="s-3tetCp-73iO3" cx="-0.9659258262890684" cy="0.25881904510252035"/></g><g  class="s-3tetCp-73iO3"><circle r="0.015" fill="#44aa00" class="s-3tetCp-73iO3" cx="-0.7071067811865475" cy="0.7071067811865476"/></g><g  class="s-3tetCp-73iO3"><circle r="0.015" fill="#44aa00" class="s-3tetCp-73iO3" cx="-0.4999999999999998" cy="0.8660254037844387"/></g><g  class="s-3tetCp-73iO3"><circle r="0.015" fill="#44aa00" class="s-3tetCp-73iO3" cx="-0.25881904510252085" cy="0.9659258262890683"/></g><g  class="s-3tetCp-73iO3"><circle r="0.015" fill="#44aa00" class="s-3tetCp-73iO3" cx="0.25881904510252074" cy="0.9659258262890683"/></g></svg>